<svg width="900" height="600" xmlns="http://www.w3.org/2000/svg" data-name="Слой 1">

 <title>Food</title>
 <g>
  <title>Layer 1</title>
  <g data-name="Layer 2" id="Layer_2">
   <g data-name="Layer 3" id="Layer_3">
    <path stroke-dasharray="5,5" id="svg_1" fill="#000000" d="m384.99938,268.48679a6.23881,6.23881 0 0 0 7.364,-4.85979q0.01086,-0.05282 0.02074,-0.10581a5.22018,5.22018 0 0 1 1.65519,-2.92843a5.72953,5.72953 0 0 1 8.02136,0a5.34754,5.34754 0 0 1 1.65519,5.09293a6.49348,6.49348 0 0 0 4.9656,7.51208l1.27324,0a6.49348,6.49348 0 0 0 6.23884,-5.22025a18.46188,18.46188 0 0 0 -31.19422,-16.552a18.97127,18.97127 0 0 0 -5.09293,9.54924a6.36615,6.36615 0 0 0 4.99166,7.49263q0.05057,0.01007 0.10133,0.0194z" class="cls-1"/>
    <path stroke-dasharray="5,5" id="svg_2" fill="#000000" d="m434.65547,294.84271l-17.316,0a6.36617,6.36617 0 0 0 0,12.73233l17.316,0a6.36617,6.36617 0 1 0 0,-12.73233z" class="cls-1"/>
    <path stroke-dasharray="5,5" id="svg_3" fill="#000000" d="m505.95653,294.84271l-17.4433,0a6.36617,6.36617 0 1 0 0,12.73233l17.4433,0a6.36617,6.36617 0 0 0 6.36617,-6.36617a6.49348,6.49348 0 0 0 -6.36617,-6.36616z" class="cls-1"/>
    <path stroke-dasharray="5,5" id="svg_4" fill="#000000" d="m448.66104,214.75634a6.87545,6.87545 0 0 0 4.58365,-1.78253l12.73233,-12.73233a6.49348,6.49348 0 0 0 0,-9.04a6.36615,6.36615 0 0 0 -9.003,-0.0369l-0.03691,0.0369l-12.73233,12.73233a6.36618,6.36618 0 0 0 -0.03691,9.003l0.03691,0.03691a6.87549,6.87549 0 0 0 4.45626,1.78262z" class="cls-1"/>
    <path stroke-dasharray="5,5" id="svg_5" fill="#000000" d="m737.04833,421.27477a6.23885,6.23885 0 0 0 -7.25743,-5.01757q-0.12786,0.02331 -0.25465,0.052l-78.94042,14.89677l49.91072,-22.66356a6.23886,6.23886 0 0 0 3.12723,-8.25027q-0.03468,-0.077 -0.07145,-0.15307l-10.05851,-21.645a6.1115,6.1115 0 0 0 -3.565,-3.31041a6.36623,6.36623 0 0 0 -4.8383,0l-21.51762,9.8039a207.78886,207.78886 0 0 0 4.58365,-38.197a14.26017,14.26017 0 0 0 -4.07434,-10.82249a15.02422,15.02422 0 0 0 -10.82246,-4.58365l-7.894,0a87.85316,87.85316 0 0 0 5.98421,-50.92933a6.49345,6.49345 0 0 0 -5.093,-5.09293a89.12655,89.12655 0 0 0 -31.70353,0a27.12216,27.12216 0 0 0 0,-3.18308a40.3615,40.3615 0 0 0 -40.23424,-40.23411a38.19725,38.19725 0 0 0 -11.9684,1.90985a89.89049,89.89049 0 0 0 1.78252,-39.47023a6.23884,6.23884 0 0 0 -5.09293,-4.96561a88.23507,88.23507 0 0 0 -60.73323,10.31319a82.63273,82.63273 0 0 0 -19.98976,-40.10684a9.67658,9.67658 0 0 0 -13.68336,-0.19489q-0.09883,0.096 -0.19489,0.19489l-46.72766,46.855a39.59749,39.59749 0 0 0 -27.62916,-11.33178a40.48879,40.48879 0 0 0 -29.02971,12.73233a39.21543,39.21543 0 0 0 -16.552,-3.69238a41.38,41.38 0 0 0 -14.89683,2.92843l0,-37.05106a34.88659,34.88659 0 0 0 -34.12268,-34.75927l-1.65527,0l0,-22.4089a20.37174,20.37174 0 0 0 16.29738,-19.86244l0,-22.79088a20.2444,20.2444 0 0 0 -20.24438,-20.24441l-62.7704,0a20.24441,20.24441 0 0 0 -20.24441,20.24441l0,22.79087a20.37174,20.37174 0 0 0 16.29738,19.86244l0,22.4089l-1.52788,0a34.88659,34.88659 0 0 0 -34.88659,34.75927l0,240.51375a5.34762,5.34762 0 0 0 0,2.03717a77.41258,77.41258 0 0 0 49.40145,137.38188l348.61127,0a19.7352,19.7352 0 0 0 19.6078,-23.42749l-5.34756,-27.37453l111.28056,5.85686l0,0a6.36618,6.36618 0 0 0 6.36617,-6.11151l1.27321,-23.68215a6.23889,6.23889 0 0 0 -1.65522,-4.58365a6.4937,6.4937 0 0 0 -4.329,-2.16447l-48.89216,-2.54648l73.46558,-13.87827a6.2388,6.2388 0 0 0 4.07434,-2.67378a6.87555,6.87555 0 0 0 1.01861,-4.711l-4.58365,-23.42742zm-97.275,-134.32609a74.61159,74.61159 0 0 1 -8.14868,44.69049l-27.2472,0l10.31321,-10.18586a6.39221,6.39221 0 0 0 -9.03994,-9.03994l-2.80113,2.8011a40.36131,40.36131 0 0 0 -11.20447,-18.20726a76.39414,76.39414 0 0 1 48.1282,-10.05853l0.00001,0zm-37.30574,-15.15148a28.52184,28.52184 0 0 1 -0.89126,6.49349a86.83459,86.83459 0 0 0 -22.15428,11.33177a28.77569,28.77569 0 0 0 -4.9656,-1.90985a40.74347,40.74347 0 0 0 -23.42749,-28.77507a27.24719,27.24719 0 0 1 50.92933,12.73233l0.5093,0.12733zm-49.01946,-71.04642a76.394,76.394 0 0 1 -7.51208,43.92654a38.19674,38.19674 0 0 0 -7.25743,11.07713l-2.92843,0a39.85223,39.85223 0 0 0 -25.46466,9.2946a50.93034,50.93034 0 0 0 -4.711,-6.87547l22.40891,-22.79085a6.49348,6.49348 0 0 0 0,-9.04a6.36615,6.36615 0 0 0 -9.003,-0.0369l-0.03691,0.0369l-23.42751,23.42754a40.87077,40.87077 0 0 0 -20.37174,-5.85687a75.75737,75.75737 0 0 1 78.30385,-43.16262zm-54.36707,130.88839a5.72961,5.72961 0 0 0 -1.65519,-3.56506l-12.73233,-12.73234a6.39221,6.39221 0 1 0 -9.03994,9.03994l6.87547,6.74814l-14.51488,0l0,-3.18308a6.36617,6.36617 0 0 0 -12.73233,0l0,3.18308l-15.02416,0l6.74814,-6.74814a6.39221,6.39221 0 1 0 -9.03994,-9.03994l-12.73233,12.73233a5.72961,5.72961 0 0 0 -1.65519,3.56506l-13.8783,0a69.90047,69.90047 0 0 1 -18.20725,-40.99809l140.05567,0a69.90047,69.90047 0 0 1 -18.20724,40.9981l-14.2602,0zm-121.46646,0l-40.61612,-41.25278a6.39221,6.39221 0 1 0 -9.04,9.03994l32.34012,32.21281l-35.39583,0a5.7295,5.7295 0 0 0 -1.6552,-3.56506a76.394,76.394 0 0 1 -21.51765,-63.66166a76.39392,76.39392 0 0 1 63.66166,21.51765a74.86619,74.86619 0 0 1 21.39032,45.3271l-9.1673,0.382zm-96.89306,0a21.13593,21.13593 0 0 1 0,-2.8011a27.11988,27.11988 0 0 1 13.75092,-23.42749a91.16325,91.16325 0 0 0 15.40612,26.2286l-29.15704,-0.00001zm193.78611,-74.99345a27.62915,27.62915 0 0 1 26.7379,21.263l-53.47577,0a27.62918,27.62918 0 0 1 26.73788,-21.26301l-0.00001,0.00001zm-2.8011,-86.19789a67.73593,67.73593 0 0 1 15.66076,36.92376l-6.62082,5.85687c-2.41915,2.54646 -4.711,5.09293 -6.87547,7.76672l-17.0613,0a6.36617,6.36617 0 1 0 0,12.73233l8.78532,0a110.26092,110.26092 0 0 0 -5.72956,12.73233l-3.81965,1.78253a40.23419,40.23419 0 0 0 -25.46466,-21.89961a43.03538,43.03538 0 0 0 -4.45632,-10.82246l45.5817,-45.07247zm-111.78987,50.03807a6.36616,6.36616 0 0 0 8.53065,-1.6552a27.24719,27.24719 0 0 1 49.52876,13.75092a6.36617,6.36617 0 0 0 5.47491,5.72955a27.50186,27.50186 0 0 1 21.8996,18.33455a39.5975,39.5975 0 0 0 -10.44051,21.263l-46.98226,0a9.54924,9.54924 0 0 0 -6.87547,3.05576a8.40365,8.40365 0 0 0 -1.90984,2.8011c-1.78252,-2.1645 -3.43774,-4.45632 -5.47491,-6.49349a87.47118,87.47118 0 0 0 -35.65053,-21.645l0,0a6.4935,6.4935 0 0 0 1.78253,-8.91263a4.83832,4.83832 0 0 1 -1.01859,-3.18308a5.85687,5.85687 0 0 1 10.94981,-2.54641a6.36617,6.36617 0 0 0 8.84021,1.70494l0.07242,-0.04974a6.23885,6.23885 0 0 0 1.749,-8.648q-0.046,-0.06929 -0.09379,-0.13733a18.46188,18.46188 0 0 0 -33.74068,10.31319a18.08,18.08 0 0 0 2.92843,9.93122a72.8285,72.8285 0 0 0 -10.56783,-1.52788a30.55728,30.55728 0 0 1 -1.40055,-8.40334a27.50184,27.50184 0 0 1 26.3316,-28.62428q0.64841,-0.027 1.29756,-0.02348a26.73788,26.73788 0 0 1 14.76948,4.96563zm-140.05565,-127.32332l0,-22.9182a7.6394,7.6394 0 0 1 7.25743,-7.51208l62.77037,0a7.51208,7.51208 0 0 1 7.51208,7.51207l0,0l0,22.79088a7.51207,7.51207 0 0 1 -7.12039,7.88433q-0.19569,0.01 -0.39169,0.00971l-62.7704,0a7.63939,7.63939 0 0 1 -7.51536,-7.76146q0.00107,-0.06631 0.00328,-0.13259l0.25468,0.12734zm16.04274,20.49905l45.19978,0l0,21.645l-45.19979,0l0.00001,-21.645zm-14.26022,34.37734l73.84752,0a22.15425,22.15425 0 0 1 22.02693,22.02694l0,18.71652l-18.71652,0a6.36617,6.36617 0 1 0 0,12.73233l18.58921,0l0,12.73233a39.59758,39.59758 0 0 0 -12.73233,29.02971a34.75868,34.75868 0 0 0 0.89126,8.1487a76.39393,76.39393 0 0 0 -10.69516,1.40055a5.98419,5.98419 0 0 0 -5.09293,4.96561a87.98034,87.98034 0 0 0 0,34.63193a38.19655,38.19655 0 0 0 -9.54925,6.49349l-80.723,0l0,-97.40236l55.513,0a6.36617,6.36617 0 0 0 0,-12.73233l-55.513,0l0,-18.71652a22.15426,22.15426 0 0 1 22.15427,-22.0269zm-22.15426,163.86507l71.93768,0a40.23421,40.23421 0 0 0 -3.8197,16.934l0,2.8011l-0.50929,0a15.02422,15.02422 0 0 0 -10.82248,4.58365a14.7695,14.7695 0 0 0 -4.07435,10.82249a204.86257,204.86257 0 0 0 6.74813,43.79923a70.91965,70.91965 0 0 0 -18.33456,-2.29182a59.07808,59.07808 0 0 0 -37.17841,11.33177a7.13015,7.13015 0 0 0 -2.03717,3.69239l-1.90985,1.01859l0,-92.6914zm33.486,95.87447a46.85511,46.85511 0 0 1 -12.73233,-3.05576a61.36984,61.36984 0 0 1 44.81787,1.78252a52.07532,52.07532 0 0 1 -19.86244,15.53344a58.6962,58.6962 0 0 1 -19.86246,5.60226a56.40379,56.40379 0 0 1 9.80389,-8.40334a6.36617,6.36617 0 0 0 -2.54646,-11.71375l0.38193,0.25463zm-61.49716,64.80755a64.42561,64.42561 0 0 1 38.197,-58.82336a47.619,47.619 0 0 0 8.14869,3.56506a44.56326,44.56326 0 0 0 -9.67657,12.73233a6.36614,6.36614 0 0 0 4.20167,8.91264a59.20526,59.20526 0 0 0 38.197,-5.60223a67.09915,67.09915 0 0 0 22.79091,-16.80668a70.4098,70.4098 0 0 0 50.92933,23.93677a44.94463,44.94463 0 0 0 10.31319,-1.14591a7.00278,7.00278 0 0 0 4.20167,-3.43774a6.87541,6.87541 0 0 0 0,-5.47491a42.6532,42.6532 0 0 0 -9.67658,-12.73233a54.11163,54.11163 0 0 0 10.18587,-4.9656a59.078,59.078 0 0 1 38.197,40.23417l-66.84474,24.44608a37.30576,37.30576 0 0 0 -26.86522,35.65052a36.669,36.669 0 0 0 9.42192,24.44605l-57.04086,0a64.80755,64.80755 0 0 1 -64.68025,-64.93463l-0.00003,-0.00023zm140.0557,-53.34846a56.40429,56.40429 0 0 1 10.18587,8.276a58.69619,58.69619 0 0 1 -19.86244,-5.60223a51.69328,51.69328 0 0 1 -19.86243,-15.4061a61.36986,61.36986 0 0 1 44.69049,-2.03717a46.8551,46.8551 0 0 1 -12.73233,3.05576a6.36618,6.36618 0 0 0 -5.47491,4.9656a6.11154,6.11154 0 0 0 3.05575,6.74814zm278.58339,115.2276a6.87541,6.87541 0 0 1 -5.22025,2.54648l-22.5362,0a6.87548,6.87548 0 0 0 0,-2.80113l-5.72956,-27.62914a6.23882,6.23882 0 0 0 -7.25743,-5.01757q-0.12786,0.02331 -0.25465,0.052a6.36618,6.36618 0 0 0 -4.96611,7.5096l0.00051,0.00248l5.72956,27.62919l-32.59479,0a6.36605,6.36605 0 0 0 0,-2.67378l-3.56506,-19.48045a6.23887,6.23887 0 0 0 -7.1777,-5.131q-0.10385,0.01727 -0.20705,0.038a6.36619,6.36619 0 0 0 -5.09293,7.38478l3.56506,19.48045l-68.75459,0a6.87548,6.87548 0 0 0 0,-2.80113l-5.72956,-27.62914a6.49224,6.49224 0 0 0 -12.73233,2.54648l5.72956,27.62919l-102.49529,0a24.44608,24.44608 0 0 1 -6.36617,-48.0009l36.79644,-13.49629l3.18308,15.40611a6.36615,6.36615 0 0 0 6.23884,5.093l1.78253,0a6.23885,6.23885 0 0 0 5.01757,-7.25743q-0.02331,-0.12786 -0.052,-0.25465l-3.56502,-17.06138l0,0l62.26115,-22.027a6.23885,6.23885 0 0 0 3.90544,-7.91164q-0.04047,-0.11937 -0.08575,-0.237a6.36616,6.36616 0 0 0 -8.14868,-3.81969l-31.95816,11.71375a71.68306,71.68306 0 0 0 -45.07246,-47.49159l-0.63662,-0.89126a59.07809,59.07809 0 0 0 -37.17841,-11.33177a68.75486,68.75486 0 0 0 -27.37451,5.22023l0,-19.98982a6.29582,6.29582 0 0 0 -11.96839,-2.8011a196.58833,196.58833 0 0 1 -2.67379,-24.44608a2.4325,2.4325 0 0 1 2.1645,-2.1645l275.655,0a6.36617,6.36617 0 0 0 0,-12.73233l-12.73237,0a82.5054,82.5054 0 0 0 14.89683,-43.7992a9.04,9.04 0 0 0 -2.54648,-6.87547a10.05854,10.05854 0 0 0 -7.00277,-3.05576l-21.00838,0a27.37452,27.37452 0 0 1 48.12822,15.66076a6.36617,6.36617 0 0 0 5.34758,5.85686a27.37451,27.37451 0 0 1 23.80945,26.73793l-5.47491,5.47491l-16.552,0a6.36617,6.36617 0 0 0 0,12.73233l84.03337,0a2.03714,2.03714 0 0 1 1.65522,0.76393a1.52786,1.52786 0 0 1 0,1.40056a173.41443,173.41443 0 0 1 -6.87547,45.3271l-65.06222,29.66633l-3.69239,-18.97117a19.73509,19.73509 0 0 0 -10.69516,-14.00557a19.22578,19.22578 0 0 0 -16.934,0l-104.65976,38.197a6.49348,6.49348 0 0 0 -3.81969,8.276a6.23883,6.23883 0 0 0 7.98452,3.75417q0.08251,-0.02972 0.16417,-0.06178l18.71655,-6.74813l4.58365,22.40891a6.23883,6.23883 0 0 0 6.23884,5.09293l1.27324,0a6.49348,6.49348 0 0 0 4.9656,-7.51208l-4.9656,-24.31875l75.12079,-27.50188a6.74808,6.74808 0 0 1 6.23884,0a6.62087,6.62087 0 0 1 3.69239,4.83828l4.8383,25.46466a7.00234,7.00234 0 0 0 0,3.18308l0,0l19.2258,95.36516a6.74817,6.74817 0 0 1 -1.65522,5.72956l0.12728,-0.25464zm18.58919,-71.42839a6.62081,6.62081 0 0 0 -5.22025,6.74812a6.36616,6.36616 0 0 0 5.98421,5.85686l95.49249,5.093l0,10.94981l-107.97017,-5.60221l-10.05855,-51.94791l98.67557,-44.81781l4.58365,10.05855l-92.43676,41.88936a6.36617,6.36617 0 0 0 3.81969,12.09573l124.9042,-23.68215l2.03717,10.82249l-119.81125,22.53616z" class="cls-1"/>
   </g>
  </g>
 </g>
</svg>